<?xml version="1.0" standalone="no"?>
<!DOCTYPE svg PUBLIC "-//W3C//DTD SVG 20010904//EN"
 "http://www.w3.org/TR/2001/REC-SVG-20010904/DTD/svg10.dtd">
<svg version="1.0" xmlns="http://www.w3.org/2000/svg"
 width="512.000000pt" height="512.000000pt" viewBox="0 0 512.000000 512.000000"
 preserveAspectRatio="xMidYMid meet">

<g transform="translate(0.000000,512.000000) scale(0.100000,-0.100000)"
fill="#001d63" stroke="none">
<path d="M2248 4945 c-379 -54 -707 -177 -1016 -382 -552 -366 -924 -936
-1043 -1598 -21 -116 -24 -160 -24 -405 0 -245 3 -289 24 -405 182 -1014 952
-1784 1966 -1966 116 -21 160 -24 405 -24 245 0 289 3 405 24 1014 182 1784
952 1966 1966 21 116 24 160 24 405 0 245 -3 289 -24 405 -181 1011 -954 1785
-1961 1965 -160 29 -567 37 -722 15z m637 -100 c835 -127 1523 -672 1824
-1444 110 -281 155 -529 155 -841 0 -197 -9 -298 -45 -470 -156 -757 -697
-1398 -1418 -1679 -281 -110 -529 -155 -841 -155 -197 0 -298 9 -470 45 -757
156 -1398 697 -1679 1418 -110 281 -155 529 -155 841 0 197 9 298 45 470 156
757 697 1398 1418 1679 214 84 403 127 676 155 79 8 392 -4 490 -19z"/>
<path d="M2315 4598 c-440 -49 -883 -265 -1205 -588 -801 -800 -801 -2100 0
-2900 800 -801 2100 -801 2900 0 801 800 801 2100 0 2900 -328 328 -767 540
-1222 589 -114 13 -359 12 -473 -1z m-120 -1003 c101 -21 209 -78 276 -145
101 -100 143 -214 143 -385 0 -91 -4 -120 -22 -166 -43 -109 -118 -182 -215
-211 -38 -12 -34 -28 8 -28 38 0 140 -57 177 -98 44 -49 79 -116 104 -197 28
-92 26 -316 -3 -410 -49 -156 -138 -257 -288 -330 -164 -79 -182 -81 -927 -77
l-488 2 0 1030 0 1030 583 0 c473 0 595 -3 652 -15z m1773 -233 l3 -122 -423
2 -423 3 -3 109 c-1 61 0 116 2 123 5 11 84 13 423 11 l418 -3 3 -123z m-180
-302 c192 -49 323 -152 406 -321 68 -139 87 -224 89 -399 l2 -145 -534 -3
-534 -2 5 -63 c10 -122 73 -213 180 -263 59 -27 71 -29 183 -29 100 1 129 5
176 23 67 27 114 73 138 138 l19 49 176 3 176 2 0 -47 c-1 -169 -114 -336
-283 -417 -127 -62 -227 -81 -417 -79 -143 0 -178 4 -262 26 -141 37 -227 85
-324 182 -91 90 -145 185 -186 330 -33 119 -31 321 5 458 104 393 395 601 810
581 54 -3 132 -14 175 -24z"/>
<path d="M1442 3242 c-9 -7 -12 -60 -10 -233 l3 -224 270 -3 c344 -4 368 -1
416 46 26 27 39 51 48 90 25 118 5 235 -49 287 l-31 30 -202 7 c-290 9 -430 9
-445 0z"/>
<path d="M1430 2191 l0 -281 173 -2 c490 -6 557 7 620 126 19 35 22 57 22 151
0 104 -2 113 -31 164 -23 42 -43 62 -85 85 l-54 31 -322 3 -323 3 0 -280z"/>
<path d="M3500 2777 c-76 -18 -145 -54 -187 -100 -32 -36 -82 -129 -98 -184
l-6 -23 341 0 341 0 -6 48 c-10 68 -46 141 -91 185 -68 66 -191 97 -294 74z"/>
</g>
</svg>
