<?xml version="1.0" standalone="no"?>
<!DOCTYPE svg PUBLIC "-//W3C//DTD SVG 20010904//EN"
 "http://www.w3.org/TR/2001/REC-SVG-20010904/DTD/svg10.dtd">
<svg version="1.0" xmlns="http://www.w3.org/2000/svg"
 width="512.000000pt" height="512.000000pt" viewBox="0 0 512.000000 512.000000"
 preserveAspectRatio="xMidYMid meet">

<g transform="translate(0.000000,512.000000) scale(0.100000,-0.100000)"
fill="#001d63" stroke="none">
<path d="M2330 5010 c-600 -63 -1120 -313 -1535 -741 -368 -380 -589 -830
-672 -1369 -24 -160 -24 -520 0 -680 86 -562 327 -1034 723 -1420 383 -372
833 -594 1374 -677 160 -24 520 -24 680 0 565 87 1035 327 1425 728 368 380
589 830 672 1369 24 160 24 520 0 680 -87 565 -327 1035 -728 1425 -377 366
-832 590 -1359 670 -124 19 -460 27 -580 15z m605 -119 c492 -83 919 -299
1269 -640 139 -136 218 -232 328 -396 183 -274 307 -596 365 -950 25 -155 25
-535 0 -690 -58 -354 -182 -676 -365 -950 -110 -164 -189 -260 -328 -396 -357
-348 -787 -562 -1299 -646 -155 -25 -535 -25 -690 0 -512 84 -942 298 -1299
646 -139 136 -218 232 -328 396 -183 274 -307 596 -365 950 -25 155 -25 535 0
690 84 512 298 942 646 1299 136 139 232 218 396 328 312 209 688 340 1090
382 106 11 464 -3 580 -23z"/>
<path d="M2355 4658 c-728 -73 -1368 -520 -1695 -1183 -270 -547 -290 -1184
-56 -1763 193 -477 575 -880 1046 -1105 241 -116 316 -129 363 -66 21 30 24
65 20 313 l-3 148 -32 -6 c-18 -3 -80 -8 -138 -12 -134 -9 -246 12 -343 63
-94 50 -148 113 -218 258 -63 132 -118 201 -208 263 -30 20 -63 49 -74 65 -20
26 -20 28 -4 45 14 13 34 17 85 17 123 -1 234 -74 328 -218 64 -97 124 -153
202 -190 63 -30 74 -32 177 -32 87 1 122 5 169 23 32 12 61 23 63 26 2 2 11
32 19 65 16 70 51 144 89 189 l26 31 -23 5 c-13 2 -66 11 -119 20 -419 68
-680 291 -773 657 -88 346 -46 657 119 879 l48 64 -18 88 c-24 117 -17 292 15
393 31 97 32 99 107 91 115 -12 256 -68 421 -169 l83 -51 112 23 c176 34 241
41 417 40 179 0 255 -7 426 -41 l111 -21 74 47 c193 124 454 209 501 163 21
-22 57 -170 64 -269 5 -76 -3 -147 -31 -268 -5 -20 4 -38 40 -85 113 -144 155
-275 162 -506 6 -180 -9 -297 -58 -443 -50 -151 -92 -220 -199 -327 -80 -81
-110 -103 -195 -146 -117 -60 -226 -94 -384 -123 -63 -11 -116 -20 -119 -20
-2 0 8 -14 23 -31 14 -18 38 -55 52 -83 55 -109 57 -122 58 -516 1 -201 5
-376 10 -390 31 -100 112 -91 390 45 434 212 760 539 975 980 291 595 292
1273 5 1873 -208 432 -544 770 -977 982 -355 174 -751 247 -1133 208z"/>
</g>
</svg>
