<?xml version="1.0" standalone="no"?>
<!DOCTYPE svg PUBLIC "-//W3C//DTD SVG 20010904//EN"
 "http://www.w3.org/TR/2001/REC-SVG-20010904/DTD/svg10.dtd">
<svg version="1.0" xmlns="http://www.w3.org/2000/svg"
 width="512.000000pt" height="512.000000pt" viewBox="0 0 512.000000 512.000000"
 preserveAspectRatio="xMidYMid meet">

<g transform="translate(0.000000,512.000000) scale(0.100000,-0.100000)"
fill="#001d63" stroke="none">
<path d="M2375 4974 c-327 -33 -586 -105 -860 -238 -237 -116 -422 -245 -608
-425 -399 -386 -638 -851 -724 -1411 -24 -160 -24 -520 0 -680 110 -716 485
-1303 1087 -1700 119 -78 362 -197 500 -245 132 -46 306 -88 452 -111 158 -25
518 -25 676 0 420 66 790 223 1127 479 101 78 277 248 369 357 289 345 471
754 543 1220 24 160 24 520 0 680 -110 716 -485 1303 -1087 1700 -124 81 -365
199 -510 248 -134 46 -294 85 -435 107 -96 15 -446 28 -530 19z m545 -118
c490 -84 923 -308 1265 -652 341 -343 556 -761 648 -1259 19 -104 22 -155 22
-385 0 -296 -11 -384 -79 -632 -216 -787 -850 -1411 -1642 -1617 -221 -57
-295 -65 -574 -65 -279 0 -353 8 -574 65 -792 206 -1426 830 -1642 1617 -68
248 -79 336 -79 632 0 296 11 384 79 632 161 587 560 1094 1104 1402 225 127
545 235 787 265 50 6 101 13 115 15 62 11 480 -3 570 -18z"/>
<path d="M2445 4653 c-764 -49 -1434 -502 -1762 -1190 -444 -931 -135 -2070
716 -2643 531 -356 1199 -451 1801 -254 731 238 1278 876 1409 1644 74 431 7
881 -188 1275 -117 236 -237 400 -427 586 -350 340 -790 539 -1278 579 -124
10 -163 10 -271 3z m880 -766 c309 -90 525 -333 575 -647 13 -87 13 -1293 0
-1380 -50 -311 -264 -555 -567 -642 -78 -23 -81 -23 -773 -23 -692 0 -695 0
-773 23 -223 64 -392 205 -492 407 -84 171 -80 129 -80 925 0 702 0 705 23
783 84 292 310 502 602 562 51 11 212 13 745 11 614 -1 686 -3 740 -19z"/>
<path d="M1846 3635 c-137 -38 -273 -148 -330 -268 -55 -117 -56 -127 -56
-827 0 -546 2 -655 15 -705 48 -187 180 -325 364 -379 48 -14 140 -16 721 -16
581 0 673 2 721 16 190 56 324 199 364 389 21 102 22 1297 0 1398 -41 193
-203 356 -393 396 -83 17 -1342 13 -1406 -4z m1516 -217 c96 -54 112 -174 35
-256 -105 -110 -289 -24 -275 129 12 118 137 185 240 127z m-664 -184 c44 -9
117 -35 172 -61 79 -38 108 -59 180 -132 72 -72 94 -102 133 -181 102 -208
102 -419 2 -625 -128 -263 -372 -407 -664 -392 -364 19 -642 300 -658 667 -6
137 12 226 73 350 39 79 62 110 133 181 72 72 102 94 181 132 151 74 292 93
448 61z"/>
<path d="M2440 2984 c-192 -52 -330 -235 -330 -439 0 -181 94 -331 258 -413
64 -31 85 -36 161 -40 140 -7 242 30 339 121 95 90 142 201 142 332 0 299
-282 516 -570 439z"/>
</g>
</svg>
