<?xml version="1.0" standalone="no"?>
<!DOCTYPE svg PUBLIC "-//W3C//DTD SVG 20010904//EN"
 "http://www.w3.org/TR/2001/REC-SVG-20010904/DTD/svg10.dtd">
<svg version="1.0" xmlns="http://www.w3.org/2000/svg"
 width="512.000000pt" height="512.000000pt" viewBox="0 0 512.000000 512.000000"
 preserveAspectRatio="xMidYMid meet">

<g transform="translate(0.000000,512.000000) scale(0.100000,-0.100000)"
fill="#001d63" stroke="none">
<path d="M2330 5010 c-574 -60 -1073 -291 -1479 -685 -401 -390 -641 -860
-728 -1425 -24 -160 -24 -520 0 -680 86 -562 327 -1034 723 -1420 383 -372
833 -594 1374 -677 160 -24 520 -24 680 0 565 87 1035 327 1425 728 368 380
589 830 672 1369 24 160 24 520 0 680 -87 565 -327 1035 -728 1425 -377 366
-832 590 -1359 670 -124 19 -460 27 -580 15z m605 -119 c492 -83 919 -299
1269 -640 139 -136 218 -232 328 -396 183 -274 307 -596 365 -950 25 -155 25
-535 0 -690 -58 -354 -182 -676 -365 -950 -110 -164 -189 -260 -328 -396 -357
-348 -787 -562 -1299 -646 -155 -25 -535 -25 -690 0 -512 84 -942 298 -1299
646 -139 136 -218 232 -328 396 -183 274 -307 596 -365 950 -25 155 -25 535 0
690 84 512 298 942 646 1299 136 139 232 218 396 328 312 209 688 340 1090
382 106 11 464 -3 580 -23z"/>
<path d="M2296 4659 c-129 -17 -271 -50 -406 -95 -773 -257 -1329 -939 -1430
-1754 -13 -109 -13 -391 0 -500 59 -473 271 -909 606 -1244 335 -335 771 -547
1244 -606 109 -13 391 -13 500 0 473 59 909 271 1244 606 335 335 547 771 606
1244 13 109 13 391 0 500 -59 473 -271 909 -606 1244 -335 335 -771 547 -1244
606 -99 12 -415 11 -514 -1z m-546 -966 c171 -76 210 -313 72 -434 -62 -55
-116 -74 -212 -74 -73 0 -92 4 -136 27 -99 52 -147 131 -148 243 -1 164 123
271 304 262 47 -2 92 -11 120 -24z m1569 -707 c236 -65 380 -260 411 -556 5
-56 10 -308 10 -560 0 -404 -2 -460 -16 -474 -13 -14 -51 -16 -258 -16 -175 0
-245 3 -254 12 -9 9 -12 126 -12 463 -1 562 -8 617 -94 693 -41 35 -128 57
-189 48 -90 -15 -162 -72 -204 -163 l-24 -52 1 -480 c0 -467 0 -481 -20 -501
-18 -18 -33 -19 -259 -19 -203 0 -243 2 -256 15 -13 14 -15 105 -15 789 0 728
1 775 18 784 23 12 481 12 504 0 15 -8 18 -23 18 -96 l0 -85 70 66 c76 72 158
118 248 141 69 18 241 13 321 -9z m-1440 -21 c6 -6 11 -297 13 -778 4 -638 2
-771 -9 -787 -13 -19 -27 -20 -257 -20 -175 0 -245 3 -254 12 -9 9 -12 198
-12 790 0 720 1 778 17 786 23 13 489 10 502 -3z"/>
</g>
</svg>
